<?xml version="1.0" encoding="UTF-8" standalone="no"?>
<svg
   width="1203"
   height="482"
   viewBox="0 0 1203 482"
   role="img"
   aria-label="企智方 ArkMind logo wordmark - transparent vector SVG"
   version="1.1"
   id="svg3"
   xmlns="http://www.w3.org/2000/svg"
   xmlns:svg="http://www.w3.org/2000/svg">
  <title
     id="title1">企智方 ArkMind logo wordmark</title>
  <defs
     id="defs3">
    <linearGradient
       id="blueGradient"
       gradientUnits="userSpaceOnUse"
       x1="0"
       y1="0"
       x2="1203"
       y2="482">
      <stop
         offset="0%"
         stop-color="#005EE8"
         id="stop1" />
      <stop
         offset="55%"
         stop-color="#0053D1"
         id="stop2" />
      <stop
         offset="100%"
         stop-color="#003FA8"
         id="stop3" />
    </linearGradient>
  </defs>
  <path
     id="chinese-wordmark"
     d="M 845 48 L 846 85 L 921 86 L 908 164 L 899 199 L 885 239 L 873 266 L 862 287 L 846 312 L 914 311 L 932 273 L 944 242 L 955 204 L 961 175 L 963 172 L 1112 173 L 1112 262 L 1110 269 L 1105 274 L 1100 276 L 1029 276 L 1020 312 L 1132 312 L 1147 307 L 1155 301 L 1160 295 L 1165 285 L 1168 271 L 1168 135 L 971 135 L 970 130 L 978 85 L 1192 85 L 1192 48 L 1054 48 L 1043 11 L 979 11 L 989 43 L 989 48 Z     M 473 182 L 474 312 L 743 312 L 753 311 L 761 308 L 770 300 L 774 293 L 776 286 L 776 182 Z     M 30 275 L 30 311 L 390 311 L 390 275 L 244 274 L 245 204 L 371 204 L 371 168 L 245 168 L 243 99 L 189 99 L 188 275 L 126 274 L 125 151 L 71 152 L 71 274 Z     M 645 32 L 645 165 L 797 165 L 796 31 Z     M 473 12 L 451 63 L 518 64 L 519 83 L 499 85 L 450 85 L 450 117 L 498 118 L 445 167 L 512 167 L 542 137 L 571 167 L 635 167 L 585 118 L 628 117 L 628 85 L 570 83 L 571 64 L 626 64 L 626 31 L 518 31 L 517 30 L 525 11 L 497 10 Z     M 10 114 L 84 115 L 149 50 L 277 50 L 341 115 L 415 115 L 351 54 L 316 14 L 109 14 L 80 48 L 42 86 Z     M 527 214 L 721 213 L 722 232 L 720 234 L 528 234 Z     M 527 263 L 721 262 L 722 280 L 528 281 Z     M 696 64 L 748 65 L 747 133 L 695 132 Z"
     fill="url(#blueGradient)"
     fill-rule="evenodd"
     shape-rendering="geometricPrecision" />
  <path
     d="m 201.31201,469 h 13.31543 l 9.49219,-27.42188 h 40.47363 L 274.41504,469 h 13.18359 l -36.12304,-98.21777 h -14.50196 z m 26.63086,-38.36426 6.92139,-19.90722 c 2.10937,-6.06446 5.1416,-15.42481 9.29443,-29.92676 4.15283,14.23828 7.05322,23.33496 9.42627,29.92676 l 7.11914,19.90722 z M 346.44141,469 h 11.86523 v -46.14258 c 0,-9.95361 7.77832,-17.13867 18.39111,-17.13867 3.16407,0 6.39405,0.52734 7.11914,0.65918 v -11.93115 c -1.38427,-0.0659 -4.28466,-0.19776 -5.99853,-0.19776 -8.76709,0 -16.41357,4.94385 -19.11621,12.39258 h -0.79102 v -11.33789 h -11.46972 z m 97.93213,0 h 11.86523 v -27.1582 l 7.77832,-7.3169 L 490.97754,469 h 15.22705 l -33.15674,-42.05566 30.84961,-31.64063 h -14.69971 l -31.50879,32.49756 h -1.45019 v -57.01904 h -11.86523 z m 120.54199,0 h 11.93115 v -56.09619 c 0,-7.58057 -0.26367,-19.18213 -0.46143,-28.54248 3.88916,11.53564 7.71241,23.00537 9.8877,28.54248 L 608.55322,469 h 10.87647 l 21.95068,-56.09619 c 2.24121,-5.73486 6.32813,-17.53418 9.8877,-28.74024 -0.26368,10.21729 -0.46143,21.48926 -0.46143,28.74024 V 469 h 12.32666 v -98.21777 h -17.86377 l -23.8623,61.96289 c -1.91162,4.94384 -4.94385,14.63379 -7.25098,22.34619 -2.30713,-7.97608 -5.40527,-17.6001 -7.25098,-22.34619 l -24.19189,-61.96289 h -17.79785 z m 165.49804,0 h 11.86524 v -73.69629 h -11.86524 z m 5.99854,-85.75928 c 4.54834,0 8.30566,-3.49365 8.30566,-7.84424 0,-4.35058 -3.75732,-7.84423 -8.30566,-7.84423 -4.48242,0 -8.23975,3.49365 -8.23975,7.84423 0,4.35059 3.75733,7.84424 8.23975,7.84424 z m 83.56201,41.59424 c 0,-12.59033 7.97608,-19.77539 18.58887,-19.77539 10.2832,0 16.61133,6.78955 16.61133,18.12744 V 469 h 11.86523 v -46.80176 c 0,-18.65478 -10.01953,-27.81738 -24.91699,-27.81738 -9.8877,0 -17.79785,4.15283 -22.54395,14.56787 l -0.0659,-13.64502 H 808.10889 V 469 h 11.86523 z m 140.51514,45.74707 c 14.04053,0 18.98437,-8.89892 21.42334,-12.98584 h 1.31836 V 469 h 11.46972 v -98.21777 h -11.86523 v 36.3208 h -0.92285 c -2.43897,-3.88916 -6.98731,-12.72217 -21.35742,-12.72217 -18.39112,0 -31.24512,14.63379 -31.24512,37.96875 0,23.4668 12.78808,38.23242 31.1792,38.23242 z m 1.77978,-10.61279 c -13.77685,0 -20.89599,-12.26074 -20.89599,-27.75147 0,-15.29297 6.92138,-27.22412 20.89599,-27.22412 13.5791,0 20.69825,10.94239 20.69825,27.22412 0,16.41358 -7.3169,27.75147 -20.69825,27.75147 z"
     id="english-wordmark"
     style="font-size:135px;font-family:Inter, Arial, Helvetica, sans-serif;letter-spacing:45;text-anchor:middle;fill:url(#blueGradient)"
     aria-label="ArkMind" />
</svg>
